<?xml version="1.0" encoding="UTF-8" standalone="no"?>
<svg
   xmlns:dc="http://purl.org/dc/elements/1.1/"
   xmlns:cc="http://creativecommons.org/ns#"
   xmlns:rdf="http://www.w3.org/1999/02/22-rdf-syntax-ns#"
   xmlns:svg="http://www.w3.org/2000/svg"
   xmlns="http://www.w3.org/2000/svg"
   xmlns:sodipodi="http://sodipodi.sourceforge.net/DTD/sodipodi-0.dtd"
   xmlns:inkscape="http://www.inkscape.org/namespaces/inkscape"
   id="Layer_1"
   version="1.2"
   viewBox="0 0 512 512"
   xml:space="preserve"
   sodipodi:docname="folder (4).svg"
   inkscape:version="0.92.2 5c3e80d, 2017-08-06"><metadata
     id="metadata19"><rdf:RDF><cc:Work
         rdf:about=""><dc:format>image/svg+xml</dc:format><dc:type
           rdf:resource="http://purl.org/dc/dcmitype/StillImage" /></cc:Work></rdf:RDF></metadata><defs
     id="defs17" /><sodipodi:namedview
     pagecolor="#ffffff"
     bordercolor="#666666"
     borderopacity="1"
     objecttolerance="10"
     gridtolerance="10"
     guidetolerance="10"
     inkscape:pageopacity="0"
     inkscape:pageshadow="2"
     inkscape:window-width="640"
     inkscape:window-height="480"
     id="namedview15"
     showgrid="false"
     inkscape:zoom="0.921875"
     inkscape:cx="205.28242"
     inkscape:cy="191.35361"
     inkscape:window-x="0"
     inkscape:window-y="0"
     inkscape:window-maximized="0"
     inkscape:current-layer="Layer_1" /><g
     id="XMLID_1591_"><rect
       fill="#00AEBB"
       height="19.1"
       id="XMLID_727_"
       width="227.1"
       x="120.3"
       y="158.6" /><rect
       fill="#00AEBB"
       height="19.1"
       id="XMLID_726_"
       width="227.1"
       x="120.3"
       y="189.6" /><rect
       fill="#00AEBB"
       height="19.1"
       id="XMLID_725_"
       width="227.1"
       x="120.3"
       y="220.7" /><rect
       fill="#00AEBB"
       height="19.1"
       id="XMLID_724_"
       width="227.1"
       x="120.3"
       y="251.7" /><rect
       fill="#00AEBB"
       height="19.1"
       id="XMLID_723_"
       width="176.5"
       x="120.3"
       y="282.7" /><path
       d="M456.1,75.1L397.6,7.3c-1.8-1.8-4.9-1.8-6.7,0l-58.5,67.8c-2.6,2.6-0.6,6.7,3.3,6.7h27.4   V135h62.1V81.8h27.4C456.7,81.8,458.7,77.7,456.1,75.1z"
       fill="#00AEBB"
       id="XMLID_722_" /><rect
       fill="#00AEBB"
       height="24.2"
       id="XMLID_721_"
       width="62.1"
       x="363.2"
       y="144.6" /><path
       d="M363.2,187.3c0,2.2,2,4,4.5,4h53.1c2.5,0,4.5-1.8,4.5-4v-8.9h-62.1V187.3z"
       fill="#00AEBB"
       id="XMLID_720_" /><path
       d="M386.7,464.2c0,15.8-12.8,28.6-28.6,28.6H109.5c-15.8,0-28.6-12.8-28.6-28.6v-8.8H67.7V469   c0,20.5,16.6,37,37,37h258.1c20.5,0,37-16.6,37-37V200.4h-13.2V464.2z"
       fill="#00AEBB"
       id="XMLID_719_" /><path
       d="M80.9,110.3c0-15.8,12.8-28.6,28.6-28.6h213.2c-1.4-4.4-0.3-9.3,3-12.7l0.4-0.4H104.8   c-20.5,0-37,16.6-37,37V333h13.2V110.3z"
       fill="#00AEBB"
       id="XMLID_718_" /><path
       d="m 345.4,394.3 v 0 c 0,-28.7 -23.3,-52.1 -52.1,-52.1 H 54.7 v 104.1 h 238.7 c 28.7,0 52,-23.3 52,-52 z"
       id="XMLID_1592_"
       inkscape:connector-curvature="0"
       style="fill:#00aebb"
       sodipodi:nodetypes="ccsccsc" /></g></svg>